<svg xmlns="http://www.w3.org/2000/svg" width="24" height="24" viewBox="0 0 24 24">
  <g id="Group_1963" data-name="Group 1963" transform="translate(-1322 -13)">
    <path id="Path_225" data-name="Path 225" d="M12,0A12,12,0,1,1,0,12,12,12,0,0,1,12,0Z" transform="translate(1322 13)" fill="#d5d5d5"/>
    <g id="Group_1" data-name="Group 1" transform="translate(71 -24)">
      <path id="Shape" d="M107.719,90.438a2.72,2.72,0,1,0-1.922-.8,2.619,2.619,0,0,0,1.922.8Z" transform="translate(1155.142 -42)" fill="#a5a5a5" fill-rule="evenodd"/>
      <path id="Shape-2" data-name="Shape" d="M102.027,119.348a7.284,7.284,0,0,0-.1-.777,6.032,6.032,0,0,0-.189-.774,3.662,3.662,0,0,0-.307-.7,2.5,2.5,0,0,0-.443-.578,1.863,1.863,0,0,0-.61-.381,2.147,2.147,0,0,0-.8-.143.872.872,0,0,0-.3.153q-.236.153-.532.342a3.376,3.376,0,0,1-.771.342,3.039,3.039,0,0,1-1.906,0,3.376,3.376,0,0,1-.771-.342q-.3-.189-.532-.342a.873.873,0,0,0-.3-.153,2.147,2.147,0,0,0-.8.143,1.863,1.863,0,0,0-.61.381,2.507,2.507,0,0,0-.443.578,3.669,3.669,0,0,0-.307.7,6.031,6.031,0,0,0-.189.774,7.237,7.237,0,0,0-.1.777q-.025.36-.025.738a1.776,1.776,0,0,0,.521,1.351,1.927,1.927,0,0,0,1.385.5h6.239a1.927,1.927,0,0,0,1.385-.5,1.775,1.775,0,0,0,.521-1.351q0-.378-.025-.738Z" transform="translate(1166 -67.892)" fill="#a5a5a5" fill-rule="evenodd"/>
    </g>
  </g>
</svg>
